<?xml version="1.0" encoding="UTF-8" standalone="no" ?>
<!DOCTYPE svg PUBLIC "-//W3C//DTD SVG 1.1//EN" "http://www.w3.org/Graphics/SVG/1.1/DTD/svg11.dtd">
<svg xmlns="http://www.w3.org/2000/svg" xmlns:xlink="http://www.w3.org/1999/xlink" version="1.1" width="1080" height="1080" viewBox="0 0 1080 1080" xml:space="preserve">
<defs>
</defs>
<g transform="matrix(1 0 0 1 540 540)" id="1301e965-2a84-4a82-835d-6f0cf036be7d"  >
<rect style="stroke: none; stroke-width: 1; stroke-dasharray: none; stroke-linecap: butt; stroke-dashoffset: 0; stroke-linejoin: miter; stroke-miterlimit: 4; fill: rgb(255,255,255); fill-rule: nonzero; opacity: 1; visibility: hidden;" vector-effect="non-scaling-stroke"  x="-540" y="-540" rx="0" ry="0" width="1080" height="1080" />
</g>
<g transform="matrix(1 0 0 1 540 540)" id="4bc637c2-3dae-4910-803a-3898580b6881"  >
</g>
<g transform="matrix(45 0 0 45 540 540)" clip-path="url(#CLIPPATH_3)"  >
<clipPath id="CLIPPATH_3" >
	<path transform="matrix(1 0 0 1 288 288.01) translate(-300, -300)" id="__lottie_element_1318" clip-path="url(#undefined)" d="M 0 0 L 600 0 L 600 600 L 0 600 z" stroke-linecap="round" />
</clipPath>
<path style="stroke: none; stroke-width: 1; stroke-dasharray: none; stroke-linecap: butt; stroke-dashoffset: 0; stroke-linejoin: miter; stroke-miterlimit: 4; fill: rgb(255,255,255); fill-rule: nonzero; opacity: 1;"  transform=" translate(0, 0)" d="M 9.335000038146973 -1.8179999589920044 C 4.184999942779541 -6.9670000076293945 -4.164000034332275 -6.9670000076293945 -9.312999725341797 -1.8179999589920044 C -11.690999984741211 0.5609999895095825 -11.35099983215332 3.6040000915527344 -9.555999755859375 5.39900016784668 C -9.300999641418457 5.6539998054504395 -8.909000396728516 5.7129998207092285 -8.59000015258789 5.544000148773193 C -8.59000015258789 5.544000148773193 -4.269999980926514 3.256999969482422 -4.269999980926514 3.256999969482422 C -3.871000051498413 3.0460000038146973 -3.683000087738037 2.5769999027252197 -3.8259999752044678 2.1489999294281006 C -3.8259999752044678 2.1489999294281006 -4.558000087738037 -0.04600000008940697 -4.558000087738037 -0.04600000008940697 C -1.8250000476837158 -1.9980000257492065 1.8459999561309814 -1.9980000257492065 4.578999996185303 -0.04600000008940697 C 4.578999996185303 -0.04600000008940697 3.815000057220459 2.757999897003174 3.815000057220459 2.757999897003174 C 3.693000078201294 3.2070000171661377 3.9240000247955322 3.677000045776367 4.354000091552734 3.8540000915527344 C 4.354000091552734 3.8540000915527344 8.63599967956543 5.617000102996826 8.63599967956543 5.617000102996826 C 8.946000099182129 5.744999885559082 9.303000450134277 5.672999858856201 9.539999961853027 5.435999870300293 C 11.331999778747559 3.6440000534057617 11.708999633789062 0.5559999942779541 9.335000038146973 -1.8179999589920044 z" stroke-linecap="round" />
</g>
</svg>