<svg xmlns="http://www.w3.org/2000/svg" width="200" height="59" version="1.0" viewBox="0 0 150 44.25"><defs><clipPath id="a"><path d="M2.43 1.332h64.582v39.879H2.43Zm0 0"/></clipPath><clipPath id="b"><path d="M5 13h59v28.21H5Zm0 0"/></clipPath></defs><g clip-path="url(#a)"><path fill="#00a887" d="M21.32 40.832q-.727.254-1.496.36a7.8 7.8 0 0 1-3.058-.176 7.9 7.9 0 0 1-3.899-2.368 7.7 7.7 0 0 1-.91-1.242 7.6 7.6 0 0 1-.652-1.394L2.867 11.859a8 8 0 0 1-.36-1.496 8 8 0 0 1-.062-1.539q.047-.773.239-1.523A7.91 7.91 0 0 1 6.3 2.492 7.8 7.8 0 0 1 9.19 1.48a8 8 0 0 1 1.54-.062q.773.046 1.523.238a7.9 7.9 0 0 1 2.762 1.328 7.93 7.93 0 0 1 2.699 3.676l8.441 24.18c.164.484.282.984.352 1.492q.105.768.058 1.535a8 8 0 0 1-.242 1.52 7.914 7.914 0 0 1-1.332 2.754q-.463.614-1.039 1.129a7.8 7.8 0 0 1-2.633 1.562m26.95 0q.727.254 1.496.36a7.8 7.8 0 0 0 3.058-.176 7.9 7.9 0 0 0 3.899-2.368q.516-.573.91-1.242c.265-.441.48-.906.656-1.394l8.434-24.14a7.9 7.9 0 0 0 .422-3.036 7.6 7.6 0 0 0-.235-1.52 8 8 0 0 0-1.328-2.761 7.8 7.8 0 0 0-1.043-1.137 8 8 0 0 0-1.238-.914 8 8 0 0 0-1.395-.652 8 8 0 0 0-3.035-.422 7.9 7.9 0 0 0-4.285 1.566 7.829 7.829 0 0 0-2.7 3.672L43.439 30.84a7.8 7.8 0 0 0-.415 3.027c.032.516.114 1.02.243 1.52q.197.744.53 1.441a7.899 7.899 0 0 0 1.84 2.441 7.8 7.8 0 0 0 2.634 1.563m0 0"/></g><g clip-path="url(#b)"><path fill="#066" d="M58.29 36.004q-.265.727-.657 1.394a8 8 0 0 1-.914 1.239q-.516.575-1.137 1.039a7.9 7.9 0 0 1-7.32 1.145 7.6 7.6 0 0 1-3.211-2.141c-3.383-2.938-5.496-6.895-10.274-8.153-4.785 1.258-6.898 5.215-10.28 8.153a7.6 7.6 0 0 1-3.212 2.14 8 8 0 0 1-3.035.422 7.9 7.9 0 0 1-5.422-2.605 8 8 0 0 1-.914-1.239 8 8 0 0 1-.652-1.394L5.64 19.707A17.5 17.5 0 0 0 9.645 25c4.43 3.824 9.91.043 13.378-3.293l.372-.363c3.332-3.352 6.222-7.055 11.402-7.403 5.176.348 8.066 4.051 11.453 7.403l.363.363c3.45 3.336 8.93 7.117 13.383 3.293a17.4 17.4 0 0 0 3.98-5.293Zm0 0"/></g><path fill="#fff" d="M70.348 14.01h3.781v25.204h-3.781ZM74.27 4.84v4.937h-4.078V4.84ZM84.46 14.01v3.938a12.5 12.5 0 0 1 3.312-3.078q1.967-1.266 4.484-1.266c1.688 0 3.133.243 4.344.72a8.8 8.8 0 0 1 3.172 2.108q3.124 3.082 3.125 8.11v14.672h-3.781V24.65c0-2.32-.657-4.172-1.97-5.547q-1.955-2.062-5.077-2.062-3.176 0-5.39 2.11-2.22 2.172-2.22 5.546v14.516h-3.78V14.01ZM120.278 23.948l10.89 15.266h-4.64l-8.812-12.657-4.735 4.688v7.969h-3.78V3.932h3.78v22.579l12.14-12.5h5.298ZM147.794 13.604v3.782h-.453q-4.08 0-6.657 3.28-2.407 3.13-2.406 7.454v11.094h-3.781V14.01h3.781v6.203q1.202-3.936 5.234-5.797 1.67-.811 4.032-.813Zm0 0"/></svg>